@startuml



skinparam classAttributeIconSize 0
class Manager {
-manId int
-sName String
-fName String

}

skinparam classAttributeIconSize 0
class Branch {
-bNo int
-name String
-telNo String

}

skinparam classAttributeIconSize 0
class Staff {
-staffId int
-sName String
-fName String
-telNo String

+regStaff(int,String,String,String)
+getStaffName(int) :String

}

Manager -- "1..3" Branch : manages
Staff -- "0..1" Manager : is a >
Staff -- "0..*" Branch : works at >
@enduml